<?xml version="1.0" encoding="iso-8859-1"?>
<!-- Generator: Adobe Illustrator 19.0.0, SVG Export Plug-In . SVG Version: 6.00 Build 0)  -->
<svg version="1.1" id="Capa_1" xmlns="http://www.w3.org/2000/svg" xmlns:xlink="http://www.w3.org/1999/xlink" x="0px" y="0px"
	 viewBox="0 0 512 512" style="enable-background:new 0 0 512 512;" xml:space="preserve">
<g>
	<g>
		<path d="M501.106,326.809H38.128c-9.162,0-16.34-7.173-16.34-16.34c0-6.013-4.88-10.894-10.894-10.894
			C4.88,299.574,0,304.455,0,310.468c0,21.379,16.749,38.128,38.128,38.128h462.979c6.013,0,10.894-4.88,10.894-10.894
			C512,331.689,507.12,326.809,501.106,326.809z"/>
	</g>
</g>
<g>
	<g>
		<path d="M473.872,245.106H38.128c-6.013,0-10.894,4.88-10.894,10.894c0,6.013,4.88,10.894,10.894,10.894h435.745
			c6.013,0,10.894-4.88,10.894-10.894C484.766,249.987,479.886,245.106,473.872,245.106z"/>
	</g>
</g>
<g>
	<g>
		<path d="M473.872,163.404H10.894C4.88,163.404,0,168.285,0,174.298c0,6.013,4.88,10.894,10.894,10.894h462.979
			c9.167,0,16.34,7.179,16.34,16.34c0,6.013,4.88,10.894,10.894,10.894S512,207.545,512,201.532
			C512,180.153,495.251,163.404,473.872,163.404z"/>
	</g>
</g>
<g>
</g>
<g>
</g>
<g>
</g>
<g>
</g>
<g>
</g>
<g>
</g>
<g>
</g>
<g>
</g>
<g>
</g>
<g>
</g>
<g>
</g>
<g>
</g>
<g>
</g>
<g>
</g>
<g>
</g>
</svg>
