<?xml version="1.0" encoding="iso-8859-1"?>
<!-- Generator: Adobe Illustrator 19.0.0, SVG Export Plug-In . SVG Version: 6.00 Build 0)  -->
<svg version="1.1" id="Capa_1" xmlns="http://www.w3.org/2000/svg" xmlns:xlink="http://www.w3.org/1999/xlink" x="0px" y="0px"
	 viewBox="0 0 512 512" style="enable-background:new 0 0 512 512;" xml:space="preserve">
<g>
	<g>
		<path d="M473.872,0H147.064c-21.379,0-38.128,16.749-38.128,38.128V93.14c0,21.379,16.749,38.128,38.128,38.128
			c26.156,0,67.562-0.136,108.974-0.272c41.379-0.136,82.764-0.272,108.898-0.272c9.009,0,16.34,7.331,16.34,16.34v326.808
			c0,9.167-7.173,16.34-16.34,16.34H38.128c-9.162,0-16.34-7.173-16.34-16.34V147.064c0-9.162,7.179-16.34,16.34-16.34h27.234
			c6.013,0,10.894-4.88,10.894-10.894c0-6.013-4.88-10.894-10.894-10.894H38.128C16.749,108.936,0,125.685,0,147.064v326.808
			C0,495.251,16.749,512,38.128,512h326.808c21.379,0,38.128-16.749,38.128-38.128V147.064c0-21.025-17.108-38.128-38.128-38.128
			c-26.156,0-67.557,0.136-108.969,0.272c-41.385,0.136-82.77,0.272-108.904,0.272c-9.162,0-16.34-7.179-16.34-16.34V38.128
			c0-9.162,7.179-16.34,16.34-16.34h326.808c9.167,0,16.34,7.179,16.34,16.34v326.808c0,9.167-7.173,16.34-16.34,16.34h-27.234
			c-6.013,0-10.894,4.88-10.894,10.894s4.88,10.894,10.894,10.894h27.234c21.379,0,38.128-16.749,38.128-38.128V38.128
			C512,16.749,495.251,0,473.872,0z"/>
	</g>
</g>
<g>
</g>
<g>
</g>
<g>
</g>
<g>
</g>
<g>
</g>
<g>
</g>
<g>
</g>
<g>
</g>
<g>
</g>
<g>
</g>
<g>
</g>
<g>
</g>
<g>
</g>
<g>
</g>
<g>
</g>
</svg>
