<?xml version="1.0" encoding="iso-8859-1"?>
<!-- Generator: Adobe Illustrator 19.0.0, SVG Export Plug-In . SVG Version: 6.00 Build 0)  -->
<svg version="1.1" id="Capa_1" xmlns="http://www.w3.org/2000/svg" xmlns:xlink="http://www.w3.org/1999/xlink" x="0px" y="0px"
	 viewBox="0 0 512 512" style="enable-background:new 0 0 512 512;" xml:space="preserve">
<g>
	<g>
		<path d="M256,136.17c-66.075,0-119.83,53.755-119.83,119.83S189.925,375.83,256,375.83S375.83,322.075,375.83,256
			S322.075,136.17,256,136.17z M256,354.043c-54.06,0-98.043-43.983-98.043-98.043S201.94,157.957,256,157.957
			S354.043,201.94,354.043,256S310.06,354.043,256,354.043z"/>
	</g>
</g>
<g>
	<g>
		<path d="M256,0c-6.013,0-10.894,4.88-10.894,10.894v81.702c0,6.013,4.88,10.894,10.894,10.894c6.013,0,10.894-4.88,10.894-10.894
			V10.894C266.894,4.88,262.013,0,256,0z"/>
	</g>
</g>
<g>
	<g>
		<path d="M256,408.511c-6.013,0-10.894,4.88-10.894,10.894v81.702c0,6.013,4.88,10.894,10.894,10.894
			c6.013,0,10.894-4.88,10.894-10.894v-81.702C266.894,413.391,262.013,408.511,256,408.511z"/>
	</g>
</g>
<g>
	<g>
		<path d="M501.106,245.106h-81.702c-6.013,0-10.894,4.88-10.894,10.894c0,6.013,4.88,10.894,10.894,10.894h81.702
			c6.013,0,10.894-4.88,10.894-10.894C512,249.987,507.12,245.106,501.106,245.106z"/>
	</g>
</g>
<g>
	<g>
		<path d="M92.596,245.106H10.894C4.88,245.106,0,249.987,0,256c0,6.013,4.88,10.894,10.894,10.894h81.702
			c6.013,0,10.894-4.88,10.894-10.894C103.489,249.987,98.609,245.106,92.596,245.106z"/>
	</g>
</g>
<g>
	<g>
		<path d="M148.229,132.826L90.493,75.09c-4.249-4.254-11.155-4.254-15.404,0c-4.254,4.254-4.254,11.15,0,15.404l57.736,57.736
			c2.124,2.13,4.913,3.192,7.702,3.192c2.789,0,5.578-1.068,7.702-3.192C152.483,143.975,152.483,137.08,148.229,132.826z"/>
	</g>
</g>
<g>
	<g>
		<path d="M436.91,421.507l-57.736-57.736c-4.254-4.254-11.15-4.254-15.404,0s-4.254,11.15,0,15.404l57.736,57.736
			c2.13,2.13,4.913,3.192,7.702,3.192c2.789,0,5.572-1.068,7.702-3.192C441.164,432.656,441.164,425.761,436.91,421.507z"/>
	</g>
</g>
<g>
	<g>
		<path d="M421.507,75.09l-57.742,57.736c-4.248,4.259-4.248,11.155,0.005,15.409c2.13,2.124,4.913,3.186,7.702,3.186
			c2.789,0,5.583-1.068,7.707-3.192l57.731-57.736L421.507,75.09z"/>
	</g>
</g>
<g>
	<g>
		<path d="M148.229,363.771c-4.248-4.254-11.155-4.254-15.404,0L75.09,421.507c-4.254,4.254-4.254,11.15,0,15.404
			c2.124,2.13,4.913,3.192,7.702,3.192s5.578-1.068,7.702-3.192l57.736-57.736C152.483,374.92,152.483,368.025,148.229,363.771z"/>
	</g>
</g>
<g>
</g>
<g>
</g>
<g>
</g>
<g>
</g>
<g>
</g>
<g>
</g>
<g>
</g>
<g>
</g>
<g>
</g>
<g>
</g>
<g>
</g>
<g>
</g>
<g>
</g>
<g>
</g>
<g>
</g>
</svg>
