<?xml version="1.0" encoding="iso-8859-1"?>
<!-- Generator: Adobe Illustrator 19.0.0, SVG Export Plug-In . SVG Version: 6.00 Build 0)  -->
<svg version="1.1" id="Capa_1" xmlns="http://www.w3.org/2000/svg" xmlns:xlink="http://www.w3.org/1999/xlink" x="0px" y="0px"
	 viewBox="0 0 512 512" style="enable-background:new 0 0 512 512;" xml:space="preserve">
<g>
	<g>
		<path d="M473.872,163.404h-27.234c-9.167,0-16.34-7.179-16.34-16.34c0-21.379-16.749-38.128-38.128-38.128H38.128
			C16.749,108.936,0,125.685,0,147.064v217.872c0,21.379,16.749,38.128,38.128,38.128H392.17c21.379,0,38.128-16.749,38.128-38.128
			V256c0-6.013-4.88-10.894-10.894-10.894c-6.013,0-10.894,4.88-10.894,10.894v108.936c0,9.167-7.173,16.34-16.34,16.34H38.128
			c-9.162,0-16.34-7.173-16.34-16.34V147.064c0-9.162,7.179-16.34,16.34-16.34H392.17c9.167,0,16.34,7.179,16.34,16.34
			c0,21.379,16.749,38.128,38.128,38.128h27.234c9.167,0,16.34,7.179,16.34,16.34v108.936c0,9.167-7.173,16.34-16.34,16.34
			c-6.013,0-10.894,4.88-10.894,10.894c0,6.013,4.88,10.894,10.894,10.894c21.379,0,38.128-16.749,38.128-38.128V201.532
			C512,180.153,495.251,163.404,473.872,163.404z"/>
	</g>
</g>
<g>
	<g>
		<path d="M92.596,163.404c-6.013,0-10.894,4.88-10.894,10.894v163.404c0,6.013,4.88,10.894,10.894,10.894
			c6.013,0,10.894-4.88,10.894-10.894V174.298C103.489,168.285,98.609,163.404,92.596,163.404z"/>
	</g>
</g>
<g>
	<g>
		<path d="M174.298,163.404c-6.013,0-10.894,4.88-10.894,10.894v163.404c0,6.013,4.88,10.894,10.894,10.894
			c6.013,0,10.894-4.88,10.894-10.894V174.298C185.192,168.285,180.311,163.404,174.298,163.404z"/>
	</g>
</g>
<g>
	<g>
		<path d="M256,163.404c-6.013,0-10.894,4.88-10.894,10.894v163.404c0,6.013,4.88,10.894,10.894,10.894
			c6.013,0,10.894-4.88,10.894-10.894V174.298C266.894,168.285,262.013,163.404,256,163.404z"/>
	</g>
</g>
<g>
</g>
<g>
</g>
<g>
</g>
<g>
</g>
<g>
</g>
<g>
</g>
<g>
</g>
<g>
</g>
<g>
</g>
<g>
</g>
<g>
</g>
<g>
</g>
<g>
</g>
<g>
</g>
<g>
</g>
</svg>
