<?xml version="1.0" encoding="iso-8859-1"?>
<!-- Generator: Adobe Illustrator 19.0.0, SVG Export Plug-In . SVG Version: 6.00 Build 0)  -->
<svg version="1.1" id="Capa_1" xmlns="http://www.w3.org/2000/svg" xmlns:xlink="http://www.w3.org/1999/xlink" x="0px" y="0px"
	 viewBox="0 0 512 512" style="enable-background:new 0 0 512 512;" xml:space="preserve">
<g>
	<g>
		<path d="M473.872,326.809h-136.17c-6.013,0-10.894,4.88-10.894,10.894c0,6.013,4.88,10.894,10.894,10.894h136.17
			c9.167,0,16.34,7.173,16.34,16.34v108.936c0,9.167-7.173,16.34-16.34,16.34H38.128c-9.162,0-16.34-7.173-16.34-16.34v-54.468
			c0-6.013-4.88-10.894-10.894-10.894C4.88,408.511,0,413.391,0,419.404v54.468C0,495.251,16.749,512,38.128,512h435.745
			C495.251,512,512,495.251,512,473.872V364.936C512,343.557,495.251,326.809,473.872,326.809z"/>
	</g>
</g>
<g>
	<g>
		<path d="M484.199,252.547L408.44,25.818C403.042,10.376,388.624,0,372.562,0H139.438c-16.575,0-31.39,10.806-35.933,25.96
			L12.544,298.305c-3.976,11.929-2.102,24.532,5.142,34.582c7.19,9.984,18.416,15.709,30.791,15.709h125.821
			c6.013,0,10.894-4.88,10.894-10.894c0-6.013-4.88-10.894-10.894-10.894H48.477c-5.289,0-10.066-2.424-13.116-6.661
			c-3.099-4.298-3.884-9.744-2.151-14.941l91.06-272.662c1.901-6.335,8.138-10.757,15.169-10.757h233.123
			c6.711,0,13.007,4.613,15.267,11.073l75.711,226.587c1.896,5.708,8.067,8.78,13.78,6.879
			C483.028,264.426,486.111,258.25,484.199,252.547z"/>
	</g>
</g>
<g>
	<g>
		<path d="M337.702,326.809c-6.013,0-10.894,4.88-10.894,10.894c0,39.043-31.766,70.808-70.809,70.808s-70.808-31.766-70.808-70.808
			c0-6.013-4.88-10.894-10.894-10.894c-6.013,0-10.894,4.88-10.894,10.894c0,51.058,41.537,92.596,92.596,92.596
			c51.058,0,92.596-41.537,92.596-92.596C348.596,331.689,343.715,326.809,337.702,326.809z"/>
	</g>
</g>
<g>
</g>
<g>
</g>
<g>
</g>
<g>
</g>
<g>
</g>
<g>
</g>
<g>
</g>
<g>
</g>
<g>
</g>
<g>
</g>
<g>
</g>
<g>
</g>
<g>
</g>
<g>
</g>
<g>
</g>
</svg>
