<?xml version="1.0" encoding="iso-8859-1"?>
<!-- Generator: Adobe Illustrator 19.0.0, SVG Export Plug-In . SVG Version: 6.00 Build 0)  -->
<svg version="1.1" id="Capa_1" xmlns="http://www.w3.org/2000/svg" xmlns:xlink="http://www.w3.org/1999/xlink" x="0px" y="0px"
	 viewBox="0 0 512 512" style="enable-background:new 0 0 512 512;" xml:space="preserve">
<g>
	<g>
		<path d="M256,0c-33.226,0-66.113,6.313-95.112,18.252c-3.018,1.242-5.316,3.775-6.269,6.896c-0.953,3.126-0.452,6.509,1.362,9.227
			l1.089,1.634c0.398,0.594,0.85,1.144,1.356,1.65L376.767,256L221.064,411.702c-4.254,4.254-4.254,11.15,0,15.404
			c4.248,4.254,11.155,4.254,15.404,0l163.404-163.404c4.254-4.254,4.254-11.15,0-15.404l-215.47-215.47
			c22.452-7.25,46.897-11.041,71.598-11.041c129.144,0,234.213,105.069,234.213,234.213S385.144,490.213,256,490.213
			c-125.494,0-228.254-99.208-233.962-223.319h288.43c6.013,0,10.894-4.88,10.894-10.894c0-6.013-4.88-10.894-10.894-10.894H10.894
			C4.88,245.106,0,249.987,0,256c0,141.159,114.841,256,256,256s256-114.841,256-256S397.159,0,256,0z"/>
	</g>
</g>
<g>
</g>
<g>
</g>
<g>
</g>
<g>
</g>
<g>
</g>
<g>
</g>
<g>
</g>
<g>
</g>
<g>
</g>
<g>
</g>
<g>
</g>
<g>
</g>
<g>
</g>
<g>
</g>
<g>
</g>
</svg>
