<?xml version="1.0" encoding="iso-8859-1"?>
<!-- Generator: Adobe Illustrator 19.0.0, SVG Export Plug-In . SVG Version: 6.00 Build 0)  -->
<svg version="1.1" id="Capa_1" xmlns="http://www.w3.org/2000/svg" xmlns:xlink="http://www.w3.org/1999/xlink" x="0px" y="0px"
	 viewBox="0 0 512 512" style="enable-background:new 0 0 512 512;" xml:space="preserve">
<g>
	<g>
		<path d="M435.454,392.094l-30.606-30.606c-18.328-17.849-28.841-42.997-28.841-68.995V119.83C376.008,53.755,322.254,0,256.178,0
			s-119.83,53.755-119.83,119.83v172.669c0,26.243-10.278,50.971-28.944,69.643l-30.382,30.377
			c-11.286,10.932-14.641,26.749-8.758,41.281c5.932,14.636,19.494,23.732,35.404,23.732h75.166c7.152,0,13.165,3.976,15.316,10.136
			C203.437,494.184,228.361,512,256.178,512c36.042,0,65.367-29.32,65.356-65.362c0-6.013-4.88-10.894-10.894-10.894
			c-6.013,0-10.894,4.88-10.894,10.894c0,24.026-19.543,43.574-43.574,43.574c-18.862,0-35.137-11.678-41.461-29.74
			c-5.251-15.022-19.336-24.729-35.878-24.729h-75.166c-6.956,0-12.642-3.786-15.202-10.126c-2.522-6.226-1.133-12.751,3.845-17.577
			l30.502-30.502c22.784-22.779,35.328-52.987,35.328-85.046V119.83c0-54.06,43.983-98.043,98.043-98.043
			s98.043,43.983,98.043,98.043v172.664c0,31.842,12.914,62.682,35.323,84.502l30.508,30.508c7.032,7.032,4.368,15.327,3.382,17.702
			c-0.97,2.348-4.902,10-14.745,10h-32.136c-4.357,0-8.361-1.667-10.97-4.564c-0.125-0.142-0.261-0.283-0.392-0.414l-38.678-38.683
			c-7.119-7.114-17.119-11.357-26.76-11.357h-98.043c-6.013,0-10.894,4.88-10.894,10.894s4.88,10.894,10.894,10.894h98.043
			c3.933,0,8.29,1.912,11.362,4.978l38.487,38.493c6.727,7.342,16.531,11.542,26.945,11.542h32.136
			c15.518,0,28.879-8.987,34.876-23.454C449.589,418.996,446.479,403.113,435.454,392.094z"/>
	</g>
</g>
<g>
</g>
<g>
</g>
<g>
</g>
<g>
</g>
<g>
</g>
<g>
</g>
<g>
</g>
<g>
</g>
<g>
</g>
<g>
</g>
<g>
</g>
<g>
</g>
<g>
</g>
<g>
</g>
<g>
</g>
</svg>
