<?xml version="1.0" encoding="iso-8859-1"?>
<!-- Generator: Adobe Illustrator 19.0.0, SVG Export Plug-In . SVG Version: 6.00 Build 0)  -->
<svg version="1.1" id="Capa_1" xmlns="http://www.w3.org/2000/svg" xmlns:xlink="http://www.w3.org/1999/xlink" x="0px" y="0px"
	 viewBox="0 0 512 512" style="enable-background:new 0 0 512 512;" xml:space="preserve">
<g>
	<g>
		<path d="M501.041,81.817H174.32c-6.012,0-10.891,4.879-10.891,10.891c0,39.032-31.757,70.79-70.79,70.79
			s-70.79-31.757-70.79-70.79s31.757-70.79,70.79-70.79c6.012,0,10.891-4.879,10.891-10.891S98.651,0.136,92.639,0.136
			c-51.045,0-92.571,41.526-92.571,92.571s41.526,92.571,92.571,92.571c47.358,0,86.527-35.749,91.934-81.68h316.468
			c6.012,0,10.891-4.879,10.891-10.891S507.053,81.817,501.041,81.817z"/>
	</g>
</g>
<g>
	<g>
		<path d="M158.06,27.287C140.455,9.676,117.171,0,92.443,0c-0.136,0-0.272,0-0.403,0C67.433,0.103,44.388,9.818,27.148,27.347
			c-4.215,4.296-4.155,11.19,0.131,15.405c4.291,4.215,11.19,4.166,15.405-0.131c13.134-13.357,30.695-20.758,49.449-20.839
			c15.165,0,30.031,4.765,42.251,13.777L92.639,77.302L73.112,57.781c-4.247-4.253-11.152-4.253-15.399,0
			c-4.253,4.253-4.253,11.147,0,15.399l27.227,27.227c2.124,2.129,4.912,3.191,7.7,3.191c2.783,0,5.576-1.062,7.7-3.191
			l57.721-57.721C162.313,38.433,162.313,31.54,158.06,27.287z"/>
	</g>
</g>
<g>
	<g>
		<path d="M501.041,245.177H174.32c-6.012,0-10.891,4.879-10.891,10.891c0,39.032-31.757,70.79-70.79,70.79
			s-70.79-31.757-70.79-70.79s31.757-70.79,70.79-70.79c6.012,0,10.891-4.879,10.891-10.891c0-6.012-4.879-10.891-10.891-10.891
			c-51.045,0-92.571,41.526-92.571,92.571s41.526,92.571,92.571,92.571c47.358,0,86.527-35.749,91.934-81.68h316.468
			c6.012,0,10.891-4.874,10.891-10.891C511.932,250.056,507.053,245.177,501.041,245.177z"/>
	</g>
</g>
<g>
	<g>
		<path d="M174.32,408.538c-6.012,0-10.891,4.879-10.891,10.891c0,39.032-31.757,70.79-70.79,70.79s-70.79-31.757-70.79-70.79
			s31.757-70.79,70.79-70.79c6.012,0,10.891-4.879,10.891-10.891s-4.879-10.891-10.891-10.891
			c-51.045,0-92.571,41.526-92.571,92.571S41.594,512,92.639,512s92.571-41.526,92.571-92.571
			C185.21,413.417,180.331,408.538,174.32,408.538z"/>
	</g>
</g>
<g>
</g>
<g>
</g>
<g>
</g>
<g>
</g>
<g>
</g>
<g>
</g>
<g>
</g>
<g>
</g>
<g>
</g>
<g>
</g>
<g>
</g>
<g>
</g>
<g>
</g>
<g>
</g>
<g>
</g>
</svg>
