<?xml version="1.0" encoding="iso-8859-1"?>
<!-- Generator: Adobe Illustrator 19.0.0, SVG Export Plug-In . SVG Version: 6.00 Build 0)  -->
<svg version="1.1" id="Capa_1" xmlns="http://www.w3.org/2000/svg" xmlns:xlink="http://www.w3.org/1999/xlink" x="0px" y="0px"
	 viewBox="0 0 512 512" style="enable-background:new 0 0 512 512;" xml:space="preserve">
<g>
	<g>
		<path d="M473.872,190.638h-47.191l-3.682-8.884l33.525-33.525c15.164-15.158,15.164-38.917,0-54.076l-38.678-38.672
			c-15.159-15.164-38.917-15.158-54.076,0l-33.525,33.525l-8.884-3.687V38.128C321.362,16.749,304.613,0,283.234,0h-54.468
			c-21.379,0-38.128,16.749-38.128,38.128v47.191l-8.884,3.687l-33.525-33.525c-15.158-15.164-38.917-15.164-54.076,0L55.481,94.154
			c-15.164,15.158-15.164,38.917,0,54.076l33.525,33.525l-3.687,8.884H38.128C16.749,190.638,0,207.387,0,228.766v54.468
			c0,21.379,16.749,38.128,38.128,38.128h47.191l3.687,8.878l-33.525,33.525c-15.164,15.159-15.164,38.917,0,54.076l38.672,38.678
			c15.158,15.158,38.917,15.158,54.076,0l33.525-33.525l8.884,3.688v47.191c0,21.379,16.749,38.128,38.128,38.128h54.468
			c21.379,0,38.128-16.749,38.128-38.128v-47.191l8.884-3.682l33.525,33.525c15.159,15.158,38.917,15.158,54.076,0l38.678-38.678
			c15.164-15.158,15.164-38.917,0-54.076l-74.621-74.621c-4.238-4.243-5.893-10.501-4.352-16.384l1.536-4.613
			c2.495-7.495,3.404-15.894,2.68-25.219c-6.705-67.045-64.882-116.78-132.368-113.283
			c-63.891,3.584-116.251,55.988-119.203,119.193c-2.004,35.246,10.126,68.662,34.157,94.099
			c24.015,25.426,56.565,39.424,91.648,39.424c6.013,0,10.894-4.88,10.894-10.894c0-6.013-4.88-10.894-10.894-10.894
			c-29.031,0-55.95-11.58-75.809-32.594c-19.875-21.036-29.903-48.7-28.236-78.009c2.446-52.306,45.78-95.602,98.62-98.565
			c55.911-2.887,103.969,38.242,109.492,93.451c0.479,6.171-0.082,11.694-1.65,16.417l-1.634,4.902
			c-0.055,0.18-0.109,0.354-0.158,0.528c-3.753,13.503,0.033,28.008,9.875,37.85l74.621,74.621c6.634,6.629,6.634,16.629,0,23.263
			l-38.678,38.678c-6.634,6.629-16.624,6.629-23.263,0l-38.678-38.678c-3.126-3.126-7.811-4.047-11.879-2.364l-22.332,9.26
			c-4.063,1.688-6.716,5.659-6.716,10.066v54.468c0,9.167-7.173,16.34-16.34,16.34h-54.468c-9.162,0-16.34-7.173-16.34-16.34
			v-54.468c0-4.406-2.653-8.377-6.727-10.066l-22.332-9.26c-4.074-1.689-8.758-0.757-11.874,2.364l-38.672,38.678
			c-6.629,6.623-16.629,6.629-23.263,0l-38.672-38.678c-6.629-6.629-6.629-16.629,0-23.263l38.672-38.678
			c3.121-3.121,4.052-7.805,2.364-11.879l-9.26-22.332c-1.688-4.063-5.659-6.716-10.066-6.716H38.128
			c-9.162,0-16.34-7.173-16.34-16.34v-54.468c0-9.162,7.179-16.34,16.34-16.34h54.468c4.406,0,8.377-2.653,10.071-6.727l9.26-22.332
			c1.683-4.069,0.752-8.758-2.364-11.874L70.89,132.82c-6.629-6.629-6.629-16.629,0-23.263l38.672-38.672
			c6.629-6.629,16.629-6.629,23.263,0l38.672,38.672c3.116,3.121,7.8,4.047,11.874,2.364l22.332-9.26
			c4.069-1.688,6.721-5.659,6.721-10.066V38.128c0-9.162,7.179-16.34,16.34-16.34h54.468c9.167,0,16.34,7.179,16.34,16.34v54.468
			c0,4.406,2.653,8.377,6.716,10.071l22.332,9.26c4.063,1.678,8.758,0.763,11.879-2.364L379.18,70.89
			c6.634-6.629,16.635-6.629,23.263,0l38.678,38.672c6.634,6.629,6.634,16.629,0,23.263l-38.678,38.672
			c-3.121,3.116-4.052,7.8-2.364,11.874l9.26,22.332c1.688,4.069,5.659,6.721,10.066,6.721h54.468c9.167,0,16.34,7.179,16.34,16.34
			v54.468c0,9.167-7.173,16.34-16.34,16.34c-6.013,0-10.894,4.88-10.894,10.894c0,6.013,4.88,10.894,10.894,10.894
			c21.379,0,38.128-16.749,38.128-38.128v-54.468C512,207.387,495.251,190.638,473.872,190.638z"/>
	</g>
</g>
<g>
</g>
<g>
</g>
<g>
</g>
<g>
</g>
<g>
</g>
<g>
</g>
<g>
</g>
<g>
</g>
<g>
</g>
<g>
</g>
<g>
</g>
<g>
</g>
<g>
</g>
<g>
</g>
<g>
</g>
</svg>
