<?xml version="1.0" encoding="iso-8859-1"?>
<!-- Generator: Adobe Illustrator 19.0.0, SVG Export Plug-In . SVG Version: 6.00 Build 0)  -->
<svg version="1.1" id="Capa_1" xmlns="http://www.w3.org/2000/svg" xmlns:xlink="http://www.w3.org/1999/xlink" x="0px" y="0px"
	 viewBox="0 0 512 512" style="enable-background:new 0 0 512 512;" xml:space="preserve">
<g>
	<g>
		<path d="M256,0c-6.013,0-10.894,4.88-10.894,10.894c0,6.013,4.88,10.894,10.894,10.894c129.144,0,234.213,105.069,234.213,234.213
			S385.144,490.213,256,490.213S21.787,385.144,21.787,256c0-6.013-4.88-10.894-10.894-10.894C4.88,245.106,0,249.987,0,256
			c0,141.159,114.841,256,256,256s256-114.841,256-256S397.159,0,256,0z"/>
	</g>
</g>
<g>
	<g>
		<path d="M256,81.702c-96.109,0-174.298,78.189-174.298,174.298S159.891,430.298,256,430.298c6.013,0,10.894-4.88,10.894-10.894
			c0-6.013-4.88-10.894-10.894-10.894c-84.093,0-152.511-68.417-152.511-152.511S171.907,103.489,256,103.489
			S408.511,171.907,408.511,256c0,6.013,4.88,10.894,10.894,10.894c6.013,0,10.894-4.88,10.894-10.894
			C430.298,159.891,352.109,81.702,256,81.702z"/>
	</g>
</g>
<g>
	<g>
		<path d="M256,163.404c-6.013,0-10.894,4.88-10.894,10.894c0,6.013,4.88,10.894,10.894,10.894
			c39.043,0,70.809,31.766,70.809,70.808S295.043,326.809,256,326.809S185.192,295.043,185.192,256
			c0-6.013-4.88-10.894-10.894-10.894c-6.013,0-10.894,4.88-10.894,10.894c0,51.058,41.537,92.596,92.596,92.596
			c51.058,0,92.596-41.537,92.596-92.596C348.596,204.942,307.058,163.404,256,163.404z"/>
	</g>
</g>
<g>
</g>
<g>
</g>
<g>
</g>
<g>
</g>
<g>
</g>
<g>
</g>
<g>
</g>
<g>
</g>
<g>
</g>
<g>
</g>
<g>
</g>
<g>
</g>
<g>
</g>
<g>
</g>
<g>
</g>
</svg>
