<?xml version="1.0" encoding="iso-8859-1"?>
<!-- Generator: Adobe Illustrator 19.0.0, SVG Export Plug-In . SVG Version: 6.00 Build 0)  -->
<svg version="1.1" id="Capa_1" xmlns="http://www.w3.org/2000/svg" xmlns:xlink="http://www.w3.org/1999/xlink" x="0px" y="0px"
	 viewBox="0 0 512 512" style="enable-background:new 0 0 512 512;" xml:space="preserve">
<g>
	<g>
		<path d="M392.17,54.468H201.532c-6.013,0-10.894,4.88-10.894,10.894c0,6.013,4.88,10.894,10.894,10.894H392.17
			c54.06,0,98.043,43.983,98.043,98.043v163.404c0,54.06-43.983,98.043-98.043,98.043H119.83c-54.06,0-98.043-43.983-98.043-98.043
			V174.298c0-52.583,41.608-95.63,93.625-97.944l132.886,132.88c4.248,4.254,11.15,4.254,15.404,0l81.702-81.702
			c4.254-4.254,4.254-11.15,0-15.404c-4.254-4.254-11.15-4.254-15.404,0l-74,73.995L127.532,57.66
			c-2.043-2.043-4.815-3.192-7.702-3.192C53.755,54.468,0,108.223,0,174.298v163.404c0,66.075,53.755,119.83,119.83,119.83h272.34
			c66.075,0,119.83-53.755,119.83-119.83V174.298C512,108.223,458.245,54.468,392.17,54.468z"/>
	</g>
</g>
<g>
</g>
<g>
</g>
<g>
</g>
<g>
</g>
<g>
</g>
<g>
</g>
<g>
</g>
<g>
</g>
<g>
</g>
<g>
</g>
<g>
</g>
<g>
</g>
<g>
</g>
<g>
</g>
<g>
</g>
</svg>
