<?xml version="1.0" encoding="iso-8859-1"?>
<!-- Generator: Adobe Illustrator 19.0.0, SVG Export Plug-In . SVG Version: 6.00 Build 0)  -->
<svg version="1.1" id="Capa_1" xmlns="http://www.w3.org/2000/svg" xmlns:xlink="http://www.w3.org/1999/xlink" x="0px" y="0px"
	 viewBox="0 0 511.996 511.996" style="enable-background:new 0 0 511.996 511.996;" xml:space="preserve">
<g>
	<g>
		<path d="M504.073,133.566c-16.906-45.844-57.376-75.839-105.605-78.294c-0.191-0.005-0.37-0.011-0.555-0.011h-7.078
			c-60.888,0-113.189,37.492-135.028,90.599c-21.839-53.107-74.14-90.599-135.028-90.599h-7.078c-0.185,0-0.37,0.005-0.555,0.011
			c-48.12,2.45-88.465,32.467-105.278,78.343c-17.358,47.363-5.526,97.988,30.839,132.104l191.304,180.943
			c7.465,6.719,16.906,10.073,26.276,10.073c9.463,0,18.849-3.419,26.047-10.241l29.085-27.447
			c7.301-7.301,11.434-16.927,11.63-27.093c0.196-10.394-3.735-20.167-11.085-27.512c-4.252-4.252-11.145-4.252-15.398,0
			c-4.252,4.252-4.252,11.145,0,15.398c6.517,6.523,6.283,16.977-0.316,23.581l-28.873,27.24c-6.18,5.842-16.198,5.755-22.601-0.005
			L53.636,249.859c-29.918-28.067-39.615-69.735-25.318-108.752c13.721-37.448,46.53-61.982,85.666-64.073h6.795
			c68.45,0,124.138,55.688,124.138,124.138c0,6.011,4.878,10.889,10.889,10.889c6.011,0,10.889-4.878,10.889-10.889
			c0-68.45,55.688-124.138,124.138-124.138h6.795c39.261,2.102,72.202,26.63,86.009,64.067
			c14.336,38.875,4.699,80.559-25.367,109.002l-60.98,60.98c-7.323,7.323-11.358,16.917-11.358,27.027
			c0,10.111,4.034,19.704,11.358,27.027c4.252,4.252,11.145,4.252,15.398,0c4.252-4.252,4.252-11.145,0-15.398
			c-3.212-3.212-4.976-7.339-4.976-11.63s1.764-8.417,4.976-11.63l60.762-60.768C509.747,231.391,521.475,180.755,504.073,133.566z"
			/>
	</g>
</g>
<g>
</g>
<g>
</g>
<g>
</g>
<g>
</g>
<g>
</g>
<g>
</g>
<g>
</g>
<g>
</g>
<g>
</g>
<g>
</g>
<g>
</g>
<g>
</g>
<g>
</g>
<g>
</g>
<g>
</g>
</svg>
