<?xml version="1.0" encoding="iso-8859-1"?>
<!-- Generator: Adobe Illustrator 19.0.0, SVG Export Plug-In . SVG Version: 6.00 Build 0)  -->
<svg version="1.1" id="Capa_1" xmlns="http://www.w3.org/2000/svg" xmlns:xlink="http://www.w3.org/1999/xlink" x="0px" y="0px"
	 viewBox="0 0 512 512" style="enable-background:new 0 0 512 512;" xml:space="preserve">
<g>
	<g>
		<path d="M378.651,42.006C342.8,14.527,300.01,0,254.916,0c-38.776,0-76.773,11.133-110.004,32.283
			C66.68,83.478,44.462,190.366,95.39,270.559l150.332,236.391c2.037,3.203,5.539,5.049,9.194,5.049
			c1.013,0,2.037-0.136,3.045-0.436c4.652-1.351,7.849-5.61,7.849-10.458V256c0-6.013-4.88-10.894-10.894-10.894
			c-19.265,0-37.273-7.658-50.71-21.569c-13.661-14.145-20.801-32.855-20.12-52.491c1.868-35.993,31.559-65.678,67.519-67.568
			c19.5-0.904,37.992,6.019,52.11,19.494c14.189,13.541,22.005,31.771,22.005,51.325c0,6.013,4.88,10.894,10.894,10.894
			c6.013,0,10.894-4.88,10.894-10.894c0-25.567-10.207-49.392-28.748-67.088c-18.465-17.626-42.676-26.678-68.227-25.491
			c-47.011,2.473-85.755,41.216-88.206,88.385c-0.899,25.785,8.41,50.138,26.216,68.57c15.017,15.551,34.413,25.132,55.481,27.588
			v197.42L113.778,258.876C69.207,188.688,88.527,95.221,156.726,50.59c29.609-18.846,63.559-28.803,98.19-28.803
			c40.257,0,78.467,12.969,110.407,37.458c59.37,46.298,74.387,131.056,34.958,197.109l-45.753,75.716
			c-3.11,5.147-1.454,11.847,3.693,14.957c5.142,3.105,11.841,1.46,14.957-3.693l45.786-75.76
			C464.046,192.049,446.747,95.101,378.651,42.006z"/>
	</g>
</g>
<g>
</g>
<g>
</g>
<g>
</g>
<g>
</g>
<g>
</g>
<g>
</g>
<g>
</g>
<g>
</g>
<g>
</g>
<g>
</g>
<g>
</g>
<g>
</g>
<g>
</g>
<g>
</g>
<g>
</g>
</svg>
