<?xml version="1.0" encoding="iso-8859-1"?>
<!-- Generator: Adobe Illustrator 19.0.0, SVG Export Plug-In . SVG Version: 6.00 Build 0)  -->
<svg version="1.1" id="Capa_1" xmlns="http://www.w3.org/2000/svg" xmlns:xlink="http://www.w3.org/1999/xlink" x="0px" y="0px"
	 viewBox="0 0 512 512" style="enable-background:new 0 0 512 512;" xml:space="preserve">
<g>
	<g>
		<path d="M499.565,55.29c-12.603-12.375-30.935-15.15-46.604-7.141L116.53,216.088c-17.225,8.796-25.753,27.362-21.224,46.202
			c4.488,18.671,20.303,31.209,39.347,31.209h82.022l-96.677,96.683c-4.553,4.553-4.553,11.932,0,16.485
			c4.547,4.553,11.938,4.553,16.485,0l116.584-116.584c3.34-3.34,4.337-8.347,2.53-12.708c-1.807-4.354-6.057-7.193-10.772-7.193
			H134.653c-9.927,0-15.127-6.896-16.677-13.349c-1.586-6.587-0.018-15.302,9.059-19.936L463.482,68.96
			c10.178-5.223,17.692,0.95,19.749,2.967c4.436,4.354,7.695,12.055,3.567,20.495l-167.88,335.761
			c-4.681,9.385-13.337,11.058-19.86,9.531c-6.494-1.527-13.43-6.832-13.43-17.132V310.987c0-6.435-5.223-11.658-11.658-11.658
			s-11.658,5.223-11.658,11.658v109.594c0,19.388,12.614,35.395,31.39,39.825c3.264,0.775,6.517,1.143,9.711,1.143
			c15.232,0,29.14-8.487,36.362-22.938l167.927-335.854C515.619,86.546,512.424,67.916,499.565,55.29z"/>
	</g>
</g>
<g>
	<g>
		<path d="M136.483,331.89c-4.547-4.553-11.938-4.553-16.485,0L3.414,448.474c-4.553,4.553-4.553,11.932,0,16.485
			c2.273,2.279,5.258,3.416,8.242,3.416c2.984,0,5.969-1.137,8.242-3.416l116.584-116.584
			C141.036,343.823,141.036,336.443,136.483,331.89z"/>
	</g>
</g>
<g>
	<g>
		<path d="M223.921,390.182c-4.547-4.553-11.938-4.553-16.485,0l-58.292,58.292c-4.553,4.553-4.553,11.932,0,16.485
			c2.273,2.279,5.258,3.416,8.242,3.416c2.984,0,5.969-1.137,8.242-3.416l58.292-58.292
			C228.473,402.115,228.473,394.735,223.921,390.182z"/>
	</g>
</g>
<g>
</g>
<g>
</g>
<g>
</g>
<g>
</g>
<g>
</g>
<g>
</g>
<g>
</g>
<g>
</g>
<g>
</g>
<g>
</g>
<g>
</g>
<g>
</g>
<g>
</g>
<g>
</g>
<g>
</g>
</svg>
