<?xml version="1.0" encoding="iso-8859-1"?>
<!-- Generator: Adobe Illustrator 19.0.0, SVG Export Plug-In . SVG Version: 6.00 Build 0)  -->
<svg version="1.1" id="Capa_1" xmlns="http://www.w3.org/2000/svg" xmlns:xlink="http://www.w3.org/1999/xlink" x="0px" y="0px"
	 viewBox="0 0 511.993 511.993" style="enable-background:new 0 0 511.993 511.993;" xml:space="preserve">
<g>
	<g>
		<path d="M473.906,266.608h-54.41c-21.356,0-38.087,16.731-38.087,38.087v136.026c0,9.157-7.166,16.323-16.323,16.323H147.445
			c-9.152,0-16.323-7.166-16.323-16.323V250.285c0-9.152,7.171-16.323,16.323-16.323h232.332c15.501,0,28.859-8.978,34.844-23.424
			c6.018-14.527,2.911-30.388-8.102-41.401L281.925,44.538c-15.142-15.148-38.882-15.142-54.024,0L3.187,269.253
			c-4.249,4.249-4.249,11.138,0,15.387c4.244,4.249,11.143,4.249,15.387,0L243.288,59.926c6.622-6.627,16.617-6.622,23.244,0
			l124.594,124.599c7.024,7.03,4.369,15.311,3.384,17.683c-0.974,2.345-4.897,9.99-14.734,9.99H147.445
			c-21.356,0-38.087,16.731-38.087,38.087v190.441c0,21.356,16.731,38.087,38.087,38.087h217.641
			c21.356,0,38.087-16.731,38.087-38.087V304.701c0-9.157,7.166-16.323,16.323-16.323h54.41c9.157,0,16.323,7.166,16.323,16.323
			v136.026c0,9.157-7.166,16.323-16.323,16.323h-27.205c-6.007,0-10.882,4.875-10.882,10.882c0,6.007,4.875,10.882,10.882,10.882
			h27.205c21.351,0,38.087-16.731,38.087-38.093V304.695C511.993,283.339,495.262,266.608,473.906,266.608z"/>
	</g>
</g>
<g>
</g>
<g>
</g>
<g>
</g>
<g>
</g>
<g>
</g>
<g>
</g>
<g>
</g>
<g>
</g>
<g>
</g>
<g>
</g>
<g>
</g>
<g>
</g>
<g>
</g>
<g>
</g>
<g>
</g>
</svg>
