<?xml version="1.0" encoding="iso-8859-1"?>
<!-- Generator: Adobe Illustrator 19.0.0, SVG Export Plug-In . SVG Version: 6.00 Build 0)  -->
<svg version="1.1" id="Capa_1" xmlns="http://www.w3.org/2000/svg" xmlns:xlink="http://www.w3.org/1999/xlink" x="0px" y="0px"
	 viewBox="0 0 512 512" style="enable-background:new 0 0 512 512;" xml:space="preserve">
<g>
	<g>
		<path d="M501.106,190.638c-6.013,0-10.894,4.88-10.894,10.894V392.17c0,54.06-43.983,98.043-98.043,98.043H119.83
			c-54.06,0-98.043-43.983-98.043-98.043V119.83c0-54.06,43.983-98.043,98.043-98.043h272.34c50.378,0,92.007,38.198,97.443,87.149
			H92.596c-6.013,0-10.894,4.88-10.894,10.894c0,6.013,4.88,10.894,10.894,10.894h408.511c6.013,0,10.894-4.88,10.894-10.894
			C512,53.755,458.245,0,392.17,0H119.83C53.755,0,0,53.755,0,119.83v272.34C0,458.245,53.755,512,119.83,512h272.34
			C458.245,512,512,458.245,512,392.17V201.532C512,195.519,507.12,190.638,501.106,190.638z"/>
	</g>
</g>
<g>
	<g>
		<path d="M130.179,190.638c-6.013,0-10.894,4.88-10.894,10.894c0,6.013,4.88,10.894,10.894,10.894
			c14.717,0,26.689,11.972,26.689,26.689s-11.972,26.689-26.689,26.689c-14.717,0-26.689-11.972-26.689-26.689
			c0-6.013-4.88-10.894-10.894-10.894c-6.013,0-10.894,4.88-10.894,10.894c0,26.733,21.749,48.477,48.477,48.477
			s48.477-21.744,48.477-48.477C178.655,212.387,156.906,190.638,130.179,190.638z"/>
	</g>
</g>
<g>
	<g>
		<path d="M167.762,354.043c-6.013,0-10.894,4.88-10.894,10.894c0,14.717-11.972,26.689-26.689,26.689
			c-14.717,0-26.689-11.972-26.689-26.689s11.972-26.689,26.689-26.689c6.013,0,10.894-4.88,10.894-10.894
			c0-6.013-4.88-10.894-10.894-10.894c-26.727,0-48.477,21.749-48.477,48.477s21.749,48.477,48.477,48.477
			s48.477-21.749,48.477-48.477C178.655,358.923,173.775,354.043,167.762,354.043z"/>
	</g>
</g>
<g>
	<g>
		<path d="M256,190.638c-26.727,0-48.477,21.749-48.477,48.477c0,26.733,21.749,48.477,48.477,48.477
			c6.013,0,10.894-4.88,10.894-10.894c0-6.013-4.88-10.894-10.894-10.894c-14.717,0-26.689-11.972-26.689-26.689
			s11.972-26.689,26.689-26.689s26.689,11.972,26.689,26.689c0,6.013,4.88,10.894,10.894,10.894c6.013,0,10.894-4.88,10.894-10.894
			C304.477,212.387,282.727,190.638,256,190.638z"/>
	</g>
</g>
<g>
	<g>
		<path d="M256,316.46c-26.727,0-48.477,21.749-48.477,48.477c0,6.013,4.88,10.894,10.894,10.894c6.013,0,10.894-4.88,10.894-10.894
			c0-14.717,11.972-26.689,26.689-26.689s26.689,11.972,26.689,26.689S270.717,391.626,256,391.626
			c-6.013,0-10.894,4.88-10.894,10.894s4.88,10.894,10.894,10.894c26.727,0,48.477-21.749,48.477-48.477S282.727,316.46,256,316.46z
			"/>
	</g>
</g>
<g>
	<g>
		<path d="M381.821,316.46c-26.728,0-48.471,21.749-48.471,48.477s21.744,48.477,48.471,48.477s48.477-21.749,48.477-48.477
			S408.549,316.46,381.821,316.46z M381.821,391.626c-14.712,0-26.684-11.972-26.684-26.689s11.972-26.689,26.684-26.689
			c14.717,0,26.689,11.972,26.689,26.689S396.539,391.626,381.821,391.626z"/>
	</g>
</g>
<g>
	<g>
		<path d="M419.404,228.221c-6.013,0-10.894,4.88-10.894,10.894c0,14.717-11.972,26.689-26.689,26.689
			c-14.712,0-26.684-11.972-26.684-26.689s11.972-26.689,26.684-26.689c6.013,0,10.894-4.88,10.894-10.894
			c0-6.013-4.88-10.894-10.894-10.894c-26.728,0-48.471,21.749-48.471,48.477c0,26.733,21.744,48.477,48.471,48.477
			s48.477-21.744,48.477-48.477C430.298,233.102,425.418,228.221,419.404,228.221z"/>
	</g>
</g>
<g>
</g>
<g>
</g>
<g>
</g>
<g>
</g>
<g>
</g>
<g>
</g>
<g>
</g>
<g>
</g>
<g>
</g>
<g>
</g>
<g>
</g>
<g>
</g>
<g>
</g>
<g>
</g>
<g>
</g>
</svg>
