<?xml version="1.0" encoding="iso-8859-1"?>
<!-- Generator: Adobe Illustrator 19.0.0, SVG Export Plug-In . SVG Version: 6.00 Build 0)  -->
<svg version="1.1" id="Capa_1" xmlns="http://www.w3.org/2000/svg" xmlns:xlink="http://www.w3.org/1999/xlink" x="0px" y="0px"
	 viewBox="0 0 511.996 511.996" style="enable-background:new 0 0 511.996 511.996;" xml:space="preserve">
<g>
	<g>
		<path d="M433.506,219.123c-1.688-0.261-3.289-2.178-3.289-3.942c0-43.635-17.233-84.466-48.53-114.973
			c-31.351-30.556-72.906-46.717-116.737-45.644c-86.007,2.292-155.978,75.814-156.37,163.928
			C45.36,223.964-2.299,278.173,0.086,341.91c2.369,62.648,58.467,115.572,122.503,115.572h296.744
			c6.011,0,10.879-4.868,10.879-10.879c0-6.011-4.879-10.89-10.89-10.89H122.578c-52.668,0-98.802-43.325-100.735-94.604
			c-1.949-52.123,36.976-96.444,88.658-100.915c11.358-1.034,20.249-10.579,20.249-21.736c0-76.386,60.459-140.134,134.765-142.116
			c37.989-1.007,73.859,13.04,100.969,39.47c27.055,26.364,41.953,61.657,41.953,99.374c0,12.605,9.354,23.554,21.812,25.471
			c35.985,5.347,61.728,36.998,59.877,73.625c-1.878,37.553-33.932,66.971-72.977,66.971H119.861c-6.011,0-10.89,4.879-10.89,10.89
			c0,6.011,4.879,10.89,10.89,10.89H417.15c50.653,0,92.268-38.511,94.724-87.662C514.296,267.501,480.582,226.12,433.506,219.123z"
			/>
	</g>
</g>
<g>
</g>
<g>
</g>
<g>
</g>
<g>
</g>
<g>
</g>
<g>
</g>
<g>
</g>
<g>
</g>
<g>
</g>
<g>
</g>
<g>
</g>
<g>
</g>
<g>
</g>
<g>
</g>
<g>
</g>
</svg>
