<?xml version="1.0" encoding="iso-8859-1"?>
<!-- Generator: Adobe Illustrator 19.0.0, SVG Export Plug-In . SVG Version: 6.00 Build 0)  -->
<svg version="1.1" id="Capa_1" xmlns="http://www.w3.org/2000/svg" xmlns:xlink="http://www.w3.org/1999/xlink" x="0px" y="0px"
	 viewBox="0 0 512 512" style="enable-background:new 0 0 512 512;" xml:space="preserve">
<g>
	<g>
		<path d="M488.546,74.54c-14.527-6.019-30.415-2.914-41.439,8.11L338.35,191.401c-7.342,6.732-11.542,16.531-11.542,26.951v43.03
			c0,6.013,4.88,10.894,10.894,10.894c6.013,0,10.894-4.88,10.894-10.894v-43.03c0-4.357,1.667-8.355,4.564-10.964
			c0.142-0.131,0.283-0.261,0.414-0.398L462.51,98.053c7.032-7.032,15.327-4.368,17.702-3.388c2.348,0.975,10,4.908,10,14.75
			v304.477c0,6.961-3.786,12.647-10.126,15.208c-6.209,2.522-12.746,1.133-17.577-3.845L345.404,308.148
			c-3.121-3.121-7.8-4.058-11.874-2.364c-4.069,1.689-6.721,5.659-6.721,10.066v27.234c0,9.167-7.173,16.34-16.34,16.34H38.128
			c-9.162,0-16.34-7.173-16.34-16.34V179.679c0-9.162,7.179-16.34,16.34-16.34h272.34c21.379,0,38.128-16.749,38.128-38.128V97.977
			c0-21.379-16.749-38.128-38.128-38.128H119.83c-6.013,0-10.894,4.88-10.894,10.894c0,6.013,4.88,10.894,10.894,10.894h190.638
			c9.167,0,16.34,7.179,16.34,16.34v27.234c0,9.161-7.173,16.34-16.34,16.34H38.128C16.749,141.552,0,158.301,0,179.679v163.404
			c0,21.379,16.749,38.128,38.128,38.128h272.34c21.379,0,38.128-16.749,38.128-38.128v-0.937l98.386,98.391
			c7.37,7.609,16.961,11.613,26.88,11.613c4.793,0,9.663-0.937,14.401-2.854C502.904,443.365,512,429.802,512,413.892V109.415
			C512,93.897,503.013,80.531,488.546,74.54z"/>
	</g>
</g>
<g>
</g>
<g>
</g>
<g>
</g>
<g>
</g>
<g>
</g>
<g>
</g>
<g>
</g>
<g>
</g>
<g>
</g>
<g>
</g>
<g>
</g>
<g>
</g>
<g>
</g>
<g>
</g>
<g>
</g>
</svg>
