<?xml version="1.0" encoding="iso-8859-1"?>
<!-- Generator: Adobe Illustrator 19.0.0, SVG Export Plug-In . SVG Version: 6.00 Build 0)  -->
<svg version="1.1" id="Capa_1" xmlns="http://www.w3.org/2000/svg" xmlns:xlink="http://www.w3.org/1999/xlink" x="0px" y="0px"
	 viewBox="0 0 512.002 512.002" style="enable-background:new 0 0 512.002 512.002;" xml:space="preserve">
<g>
	<g>
		<path d="M275.391,25.11c-11.867-6.971-26.212-7.064-38.357-0.278c-0.316,0.174-0.615,0.359-0.909,0.566l-111.072,77.318
			c-9.95,6.884-16.131,18.871-16.131,31.282v13.071c0,9.16-7.178,16.338-16.338,16.338H38.122C16.747,163.407,0,180.154,0,201.529
			V310.45c0,21.376,16.747,38.122,38.122,38.122h27.23c6.012,0,10.892-4.88,10.892-10.892c0-6.012-4.88-10.892-10.892-10.892h-27.23
			c-9.16,0-16.338-7.172-16.338-16.338V201.529c0-9.16,7.178-16.338,16.338-16.338h54.461c21.376,0,38.122-16.747,38.122-38.122
			v-13.071c0-5.206,2.712-10.576,6.769-13.381l110.609-76.996c5.299-2.783,11.213-2.69,16.284,0.278
			c5.043,2.963,7.935,8.011,7.935,13.86v307.158c0,6.012,4.88,10.892,10.892,10.892s10.892-4.88,10.892-10.898V57.754
			C294.087,44.176,287.1,31.977,275.391,25.11z"/>
	</g>
</g>
<g>
	<g>
		<path d="M462.893,134.799c-33.221-34.223-77.699-53.072-125.237-53.072c-6.012,0-10.892,4.88-10.892,10.892v54.461
			c0,6.012,4.88,10.892,10.892,10.892c54.052,0,98.029,43.977,98.029,98.029c0,50.371-38.193,91.995-87.137,97.43v-32.987
			c30.868-5.201,54.461-32.115,54.461-64.443c0-36.037-29.316-65.353-65.353-65.353c-6.012,0-10.892,4.88-10.892,10.892
			s4.88,10.892,10.892,10.892c24.023,0,43.568,19.546,43.568,43.568c0,24.023-19.546,43.568-43.568,43.568
			c-6.012,0-10.892,4.88-10.892,10.892v54.461c0,6.012,4.88,10.892,10.892,10.892c66.066,0,119.813-53.747,119.813-119.813
			c0-62.395-47.942-113.806-108.921-119.323v-32.791c37.463,2.62,72.182,18.751,98.715,46.079
			c28.875,29.741,44.108,68.833,42.888,110.054c-2.494,81.865-72.367,148.465-155.763,148.465h-51.193
			c-6.012,0-10.892,4.88-10.892,10.892v34.849c0,5.735-3.044,10.919-8.142,13.86c-5.059,2.93-11.012,3.033-16.017,0.321
			l-110.691-77.051c-4.036-2.794-6.748-8.169-6.748-13.376V228.765c0-6.012-4.88-10.892-10.892-10.892s-10.892,4.88-10.892,10.892
			v149.216c0,12.406,6.181,24.393,16.104,31.271l111.1,77.334c0.256,0.174,0.517,0.349,0.79,0.501
			c5.909,3.398,12.395,5.103,18.903,5.103c6.601,0,13.207-1.754,19.246-5.239c11.911-6.889,19.023-19.121,19.023-32.725v-23.957
			h40.301c95.045,0,174.688-76.076,177.536-169.585C513.323,213.511,495.907,168.804,462.893,134.799z"/>
	</g>
</g>
<g>
</g>
<g>
</g>
<g>
</g>
<g>
</g>
<g>
</g>
<g>
</g>
<g>
</g>
<g>
</g>
<g>
</g>
<g>
</g>
<g>
</g>
<g>
</g>
<g>
</g>
<g>
</g>
<g>
</g>
</svg>
