<?xml version="1.0" encoding="iso-8859-1"?>
<!-- Generator: Adobe Illustrator 19.0.0, SVG Export Plug-In . SVG Version: 6.00 Build 0)  -->
<svg version="1.1" id="Capa_1" xmlns="http://www.w3.org/2000/svg" xmlns:xlink="http://www.w3.org/1999/xlink" x="0px" y="0px"
	 viewBox="0 0 512 512" style="enable-background:new 0 0 512 512;" xml:space="preserve">
<g>
	<g>
		<path d="M508.69,493.413l-54.443-54.443c-5.292-5.297-5.635-14.253-0.947-20.198c86.395-104.247,75.92-258.357-23.835-350.834
			C332.051-22.648,179.416-22.648,81.98,67.95c-99.341,92.607-109.566,246.707-23.225,350.888c4.916,5.836,4.404,14.4-1.002,20.133
			L3.31,493.413c-4.252,4.252-4.252,11.144,0,15.396c4.247,4.252,11.15,4.252,15.396,0l54.66-54.666
			c13.349-14.139,14.209-34.887,2.101-49.271C-3.468,309.626,5.918,168.631,96.821,83.885
			c89.106-82.851,228.719-82.851,317.83,0.011c91.295,84.631,100.909,225.621,21.717,321.179
			c-11.575,14.672-10.491,36.324,2.483,49.292l54.443,54.443c2.129,2.129,4.911,3.19,7.698,3.19c2.787,0,5.575-1.062,7.698-3.19
			C512.942,504.558,512.942,497.665,508.69,493.413z"/>
	</g>
</g>
<g>
	<g>
		<path d="M256,81.903c-6.01,0-10.889,4.878-10.889,10.889v152.439h-97.997c-6.01,0-10.889,4.878-10.889,10.888
			c0,6.01,4.878,10.889,10.889,10.889H256c6.016,0,10.888-4.873,10.888-10.889V92.792C266.888,86.782,262.01,81.903,256,81.903z"/>
	</g>
</g>
<g>
	<g>
		<path d="M398.171,113.948c-4.252-4.252-11.144-4.252-15.396,0s-4.252,11.144,0,15.396c34.016,34.016,52.749,79.138,52.749,127.047
			s-18.734,93.032-52.749,127.047c-34.016,34.016-79.138,52.749-127.047,52.749s-93.031-18.734-127.047-52.749
			c-4.252-4.252-11.15-4.252-15.396,0c-4.252,4.252-4.252,11.144,0,15.396c38.126,38.132,88.714,59.13,142.444,59.13
			c53.724,0,104.312-20.999,142.444-59.13c38.132-38.132,59.13-88.72,59.13-142.444
			C457.301,202.663,436.303,152.075,398.171,113.948z"/>
	</g>
</g>
<g>
</g>
<g>
</g>
<g>
</g>
<g>
</g>
<g>
</g>
<g>
</g>
<g>
</g>
<g>
</g>
<g>
</g>
<g>
</g>
<g>
</g>
<g>
</g>
<g>
</g>
<g>
</g>
<g>
</g>
</svg>
