<?xml version="1.0" encoding="iso-8859-1"?>
<!-- Generator: Adobe Illustrator 19.0.0, SVG Export Plug-In . SVG Version: 6.00 Build 0)  -->
<svg version="1.1" id="Capa_1" xmlns="http://www.w3.org/2000/svg" xmlns:xlink="http://www.w3.org/1999/xlink" x="0px" y="0px"
	 viewBox="0 0 512 512" style="enable-background:new 0 0 512 512;" xml:space="preserve">
<g>
	<g>
		<path d="M256,0c-6.013,0-10.894,4.88-10.894,10.894c0,6.013,4.88,10.894,10.894,10.894c129.144,0,234.213,105.069,234.213,234.213
			S385.144,490.213,256,490.213S21.787,385.144,21.787,256c0-6.013-4.88-10.894-10.894-10.894C4.88,245.106,0,249.987,0,256
			c0,141.159,114.841,256,256,256s256-114.841,256-256S397.159,0,256,0z"/>
	</g>
</g>
<g>
	<g>
		<path d="M256,81.702c-6.013,0-10.894,4.88-10.894,10.894v152.511h-98.043c-6.013,0-10.894,4.88-10.894,10.894
			c0,6.013,4.88,10.894,10.894,10.894H256c6.013,0,10.894-4.88,10.894-10.894V92.596C266.894,86.582,262.013,81.702,256,81.702z"/>
	</g>
</g>
<g>
</g>
<g>
</g>
<g>
</g>
<g>
</g>
<g>
</g>
<g>
</g>
<g>
</g>
<g>
</g>
<g>
</g>
<g>
</g>
<g>
</g>
<g>
</g>
<g>
</g>
<g>
</g>
<g>
</g>
</svg>
