<?xml version="1.0" encoding="iso-8859-1"?>
<!-- Generator: Adobe Illustrator 19.0.0, SVG Export Plug-In . SVG Version: 6.00 Build 0)  -->
<svg version="1.1" id="Capa_1" xmlns="http://www.w3.org/2000/svg" xmlns:xlink="http://www.w3.org/1999/xlink" x="0px" y="0px"
	 viewBox="0 0 512 512" style="enable-background:new 0 0 512 512;" xml:space="preserve">
<g>
	<g>
		<path d="M392.17,0c-6.013,0-10.894,4.88-10.894,10.894v97.498c0,4.357-1.667,8.355-4.564,10.964
			c-0.142,0.131-0.283,0.261-0.414,0.398L267.362,228.69c-6.64,6.629-16.635,6.634-23.269,0L127.532,112.128
			c-4.249-4.254-11.155-4.254-15.404,0c-4.254,4.254-4.254,11.15,0,15.404L228.69,244.093c15.164,15.169,38.923,15.164,54.076,0
			l108.756-108.751c7.342-6.732,11.542-16.531,11.542-26.951V22.386c48.95,5.436,87.149,47.066,87.149,97.443v272.34
			c0,54.06-43.983,98.043-98.043,98.043H119.83c-54.06,0-98.043-43.983-98.043-98.043V119.83c0-52.578,41.603-95.619,93.614-97.944
			L228.69,135.702c15.164,15.169,38.923,15.169,54.076,0l35.404-35.404c4.254-4.254,4.254-11.15,0-15.404
			c-4.254-4.254-11.15-4.254-15.404,0l-35.404,35.404c-6.422,6.422-16.858,6.405-23.252,0.016L127.548,3.208
			C125.505,1.155,122.727,0,119.83,0C53.755,0,0,53.755,0,119.83v272.34C0,458.245,53.755,512,119.83,512h272.34
			C458.245,512,512,458.245,512,392.17V119.83C512,53.755,458.245,0,392.17,0z"/>
	</g>
</g>
<g>
</g>
<g>
</g>
<g>
</g>
<g>
</g>
<g>
</g>
<g>
</g>
<g>
</g>
<g>
</g>
<g>
</g>
<g>
</g>
<g>
</g>
<g>
</g>
<g>
</g>
<g>
</g>
<g>
</g>
</svg>
