<?xml version="1.0" encoding="iso-8859-1"?>
<!-- Generator: Adobe Illustrator 19.0.0, SVG Export Plug-In . SVG Version: 6.00 Build 0)  -->
<svg version="1.1" id="Capa_1" xmlns="http://www.w3.org/2000/svg" xmlns:xlink="http://www.w3.org/1999/xlink" x="0px" y="0px"
	 viewBox="0 0 512 512" style="enable-background:new 0 0 512 512;" xml:space="preserve">
<g>
	<g>
		<path d="M392.17,136.17h-27.234c-21.379,0-38.128,16.749-38.128,38.128v245.106c0,9.167-7.173,16.34-16.34,16.34h-27.234
			c-9.167,0-16.34-7.173-16.34-16.34V174.298c0-21.379-16.749-38.128-38.128-38.128h-27.234c-21.379,0-38.128,16.749-38.128,38.128
			v272.34c0,6.013,4.88,10.894,10.894,10.894c6.013,0,10.894-4.88,10.894-10.894v-272.34c0-9.161,7.179-16.34,16.34-16.34h27.234
			c9.161,0,16.34,7.179,16.34,16.34v245.106c0,21.379,16.749,38.128,38.128,38.128h27.234c21.379,0,38.128-16.749,38.128-38.128
			V174.298c0-9.161,7.173-16.34,16.34-16.34h27.234c9.167,0,16.34,7.179,16.34,16.34v299.574c0,9.167-7.173,16.34-16.34,16.34
			H119.83c-9.161,0-16.34-7.173-16.34-16.34V103.489c0-3.938,1.906-8.29,4.946-11.329l65.906-65.362
			c0.147-0.142,0.294-0.294,0.43-0.447c2.609-2.903,6.607-4.564,10.964-4.564h140.528c4.728,0,8.508,1.585,11.907,4.978
			l54.937,54.937H174.298c-6.013,0-10.894,4.88-10.894,10.894c0,6.013,4.88,10.894,10.894,10.894h245.106
			c4.406,0,8.377-2.653,10.066-6.727c1.683-4.069,0.752-8.753-2.364-11.869l-73.532-73.532C346.036,3.824,336.847,0,326.264,0
			H185.736c-10.409,0-20.202,4.2-26.934,11.525L93.064,76.724c-7.114,7.114-11.362,17.119-11.362,26.766v370.383
			c0,21.379,16.749,38.128,38.128,38.128h272.34c21.379,0,38.128-16.749,38.128-38.128V174.298
			C430.298,152.919,413.549,136.17,392.17,136.17z"/>
	</g>
</g>
<g>
</g>
<g>
</g>
<g>
</g>
<g>
</g>
<g>
</g>
<g>
</g>
<g>
</g>
<g>
</g>
<g>
</g>
<g>
</g>
<g>
</g>
<g>
</g>
<g>
</g>
<g>
</g>
<g>
</g>
</svg>
