<?xml version="1.0" encoding="iso-8859-1"?>
<!-- Generator: Adobe Illustrator 19.0.0, SVG Export Plug-In . SVG Version: 6.00 Build 0)  -->
<svg version="1.1" id="Capa_1" xmlns="http://www.w3.org/2000/svg" xmlns:xlink="http://www.w3.org/1999/xlink" x="0px" y="0px"
	 viewBox="0 0 512 512" style="enable-background:new 0 0 512 512;" xml:space="preserve">
<g>
	<g>
		<path d="M499.81,139.581c-6.729,0-12.19,5.461-12.19,12.19v209.067c0,69.906-57.149,126.781-127.391,126.781H151.771
			c-70.248,0-127.39-57.149-127.39-127.391V151.771c0-70.248,57.143-127.39,127.39-127.39h209.067c6.729,0,12.19-5.461,12.19-12.19
			c0-6.729-5.461-12.19-12.19-12.19H151.771C68.084,0,0,68.084,0,151.771v208.457C0,443.916,68.084,512,151.771,512h208.457
			C443.916,512,512,444.19,512,360.838V151.771C512,145.042,506.539,139.581,499.81,139.581z"/>
	</g>
</g>
<g>
</g>
<g>
</g>
<g>
</g>
<g>
</g>
<g>
</g>
<g>
</g>
<g>
</g>
<g>
</g>
<g>
</g>
<g>
</g>
<g>
</g>
<g>
</g>
<g>
</g>
<g>
</g>
<g>
</g>
</svg>
