<?xml version="1.0" encoding="iso-8859-1"?>
<!-- Generator: Adobe Illustrator 19.0.0, SVG Export Plug-In . SVG Version: 6.00 Build 0)  -->
<svg version="1.1" id="Capa_1" xmlns="http://www.w3.org/2000/svg" xmlns:xlink="http://www.w3.org/1999/xlink" x="0px" y="0px"
	 viewBox="0 0 512 512" style="enable-background:new 0 0 512 512;" xml:space="preserve">
<g>
	<g>
		<path d="M215.15,0c-6.013,0-10.894,4.88-10.894,10.894c0,6.013,4.88,10.894,10.894,10.894
			c106.621,0,193.362,86.74,193.362,193.362s-86.74,193.362-193.362,193.362S21.788,321.77,21.788,215.149
			c0-6.013-4.88-10.894-10.894-10.894c-6.013,0-10.894,4.88-10.894,10.894c0,118.631,96.517,215.149,215.149,215.149
			s215.149-96.517,215.149-215.149S333.781,0,215.15,0z"/>
	</g>
</g>
<g>
	<g>
		<path d="M326.341,103.958c-61.309-61.315-161.073-61.315-222.382,0c-61.309,61.309-61.309,161.073,0,222.382
			c4.249,4.254,11.155,4.254,15.404,0c4.254-4.254,4.254-11.15,0-15.404c-52.818-52.818-52.818-138.757,0-191.575
			c52.818-52.812,138.757-52.812,191.575,0c52.812,52.818,52.812,138.757,0,191.575c-4.254,4.254-4.254,11.15,0,15.404
			c2.13,2.13,4.913,3.192,7.702,3.192s5.572-1.062,7.702-3.192C387.655,265.031,387.655,165.267,326.341,103.958z"/>
	</g>
</g>
<g>
	<g>
		<path d="M508.809,493.405l-136.17-136.17c-4.254-4.254-11.15-4.254-15.404,0s-4.254,11.15,0,15.404l136.17,136.17
			c2.13,2.13,4.913,3.192,7.702,3.192s5.572-1.062,7.702-3.192C513.063,504.554,513.063,497.659,508.809,493.405z"/>
	</g>
</g>
<g>
</g>
<g>
</g>
<g>
</g>
<g>
</g>
<g>
</g>
<g>
</g>
<g>
</g>
<g>
</g>
<g>
</g>
<g>
</g>
<g>
</g>
<g>
</g>
<g>
</g>
<g>
</g>
<g>
</g>
</svg>
