<?xml version="1.0" encoding="iso-8859-1"?>
<!-- Generator: Adobe Illustrator 19.0.0, SVG Export Plug-In . SVG Version: 6.00 Build 0)  -->
<svg version="1.1" id="Capa_1" xmlns="http://www.w3.org/2000/svg" xmlns:xlink="http://www.w3.org/1999/xlink" x="0px" y="0px"
	 viewBox="0 0 512 512" style="enable-background:new 0 0 512 512;" xml:space="preserve">
<g>
	<g>
		<path d="M500.464,158.796L353.574,11.362C346.036,3.824,336.847,0,326.264,0H201.532c-6.013,0-10.894,4.88-10.894,10.894
			c0,6.013,4.88,10.894,10.894,10.894h124.732c4.728,0,8.508,1.585,11.89,4.967l147.064,147.609c0.136,0.142,0.283,0.278,0.43,0.409
			c2.898,2.609,4.564,6.607,4.564,10.964V392.17c0,54.06-43.983,98.043-98.043,98.043H119.83c-54.06,0-98.043-43.983-98.043-98.043
			V119.83c0-50.378,38.198-92.007,87.149-97.443v70.209c0,21.379,16.749,38.128,38.128,38.128H392.17
			c6.013,0,10.894-4.88,10.894-10.894c0-6.013-4.88-10.894-10.894-10.894H147.064c-9.162,0-16.34-7.179-16.34-16.34V10.894
			C130.723,4.88,125.843,0,119.83,0C53.755,0,0,53.755,0,119.83v272.34C0,458.245,53.755,512,119.83,512h272.34
			C458.245,512,512,458.245,512,392.17V185.736C512,175.322,507.8,165.523,500.464,158.796z"/>
	</g>
</g>
<g>
	<g>
		<path d="M256,163.404c-51.058,0-92.596,41.537-92.596,92.596c0,51.058,41.537,92.596,92.596,92.596
			c51.058,0,92.596-41.537,92.596-92.596C348.596,204.942,307.058,163.404,256,163.404z M256,326.809
			c-39.043,0-70.808-31.766-70.808-70.809s31.766-70.808,70.808-70.808s70.809,31.766,70.809,70.808S295.043,326.809,256,326.809z"
			/>
	</g>
</g>
<g>
</g>
<g>
</g>
<g>
</g>
<g>
</g>
<g>
</g>
<g>
</g>
<g>
</g>
<g>
</g>
<g>
</g>
<g>
</g>
<g>
</g>
<g>
</g>
<g>
</g>
<g>
</g>
<g>
</g>
</svg>
