<?xml version="1.0" encoding="iso-8859-1"?>
<!-- Generator: Adobe Illustrator 19.0.0, SVG Export Plug-In . SVG Version: 6.00 Build 0)  -->
<svg version="1.1" id="Capa_1" xmlns="http://www.w3.org/2000/svg" xmlns:xlink="http://www.w3.org/1999/xlink" x="0px" y="0px"
	 viewBox="0 0 512 512" style="enable-background:new 0 0 512 512;" xml:space="preserve">
<g>
	<g>
		<path d="M351.319,381.277c-36.042,0-65.362,29.32-65.362,65.362c0,6.013,4.88,10.894,10.894,10.894
			c6.013,0,10.894-4.88,10.894-10.894c0-24.026,19.549-43.574,43.574-43.574s43.574,19.549,43.574,43.574
			s-19.549,43.574-43.574,43.574c-6.013,0-10.894,4.88-10.894,10.894S345.306,512,351.319,512c36.042,0,65.362-29.32,65.362-65.362
			S387.361,381.277,351.319,381.277z"/>
	</g>
</g>
<g>
	<g>
		<path d="M160.681,190.638c-6.013,0-10.894,4.88-10.894,10.894c0,6.013,4.88,10.894,10.894,10.894
			c24.026,0,43.574,19.549,43.574,43.574s-19.549,43.574-43.574,43.574S117.106,280.026,117.106,256
			c0-6.013-4.88-10.894-10.894-10.894c-6.013,0-10.894,4.88-10.894,10.894c0,36.042,29.32,65.362,65.362,65.362
			c36.042,0,65.362-29.32,65.362-65.362C226.043,219.958,196.722,190.638,160.681,190.638z"/>
	</g>
</g>
<g>
	<g>
		<path d="M405.787,54.468c-6.013,0-10.894,4.88-10.894,10.894c0,24.026-19.549,43.574-43.574,43.574
			c-24.026,0-43.574-19.549-43.574-43.574s19.549-43.574,43.574-43.574c6.013,0,10.894-4.88,10.894-10.894
			C362.213,4.88,357.332,0,351.319,0c-36.042,0-65.362,29.32-65.362,65.362c0,36.042,29.32,65.362,65.362,65.362
			s65.362-29.32,65.362-65.362C416.681,59.348,411.8,54.468,405.787,54.468z"/>
	</g>
</g>
<g>
	<g>
		<path d="M318.715,398.63L209.234,289.149c-4.249-4.254-11.155-4.254-15.404,0c-4.254,4.254-4.254,11.15,0,15.404l109.481,109.481
			c2.13,2.13,4.913,3.192,7.702,3.192c2.783,0,5.572-1.068,7.702-3.192C322.969,409.78,322.969,402.884,318.715,398.63z"/>
	</g>
</g>
<g>
	<g>
		<path d="M318.715,97.966c-4.254-4.254-11.15-4.254-15.404,0L193.285,207.992c-4.254,4.254-4.254,11.15,0,15.404
			c2.13,2.13,4.913,3.192,7.702,3.192s5.578-1.062,7.702-3.192L318.715,113.37C322.969,109.116,322.969,102.22,318.715,97.966z"/>
	</g>
</g>
<g>
</g>
<g>
</g>
<g>
</g>
<g>
</g>
<g>
</g>
<g>
</g>
<g>
</g>
<g>
</g>
<g>
</g>
<g>
</g>
<g>
</g>
<g>
</g>
<g>
</g>
<g>
</g>
<g>
</g>
</svg>
