<?xml version="1.0" encoding="iso-8859-1"?>
<!-- Generator: Adobe Illustrator 19.0.0, SVG Export Plug-In . SVG Version: 6.00 Build 0)  -->
<svg version="1.1" id="Capa_1" xmlns="http://www.w3.org/2000/svg" xmlns:xlink="http://www.w3.org/1999/xlink" x="0px" y="0px"
	 viewBox="0 0 512.005 512.005" style="enable-background:new 0 0 512.005 512.005;" xml:space="preserve">
<g>
	<g>
		<path d="M409.193,247.341c-5.003-5.003-13.113-5.003-18.116,0l-233.954,233.32c-8.046,8.309-17.604,5.323-20.339,4.221
			c-5.849-2.377-12.101-8.27-12.101-17.732V44.995c0-8.18,4.452-14.868,11.909-17.886c7.322-2.966,15.003-1.326,20.672,4.523
			l137.729,137.729c5.003,5.003,13.113,5.003,18.116,0c5.003-5.003,5.003-13.113,0-18.116L175.522,13.656
			C162.658,0.383,144.049-3.563,126.97,3.356C109.751,10.332,99.06,26.289,99.06,44.995V467.15
			c0,18.289,11.031,34.567,28.103,41.479c5.605,2.268,11.371,3.376,17.034,3.376c11.569,0,22.703-4.625,31.165-13.357
			l176.178-175.537l57.654-57.654C414.197,260.454,414.197,252.344,409.193,247.341z"/>
	</g>
</g>
<g>
</g>
<g>
</g>
<g>
</g>
<g>
</g>
<g>
</g>
<g>
</g>
<g>
</g>
<g>
</g>
<g>
</g>
<g>
</g>
<g>
</g>
<g>
</g>
<g>
</g>
<g>
</g>
<g>
</g>
</svg>
