<?xml version="1.0" encoding="iso-8859-1"?>
<!-- Generator: Adobe Illustrator 19.0.0, SVG Export Plug-In . SVG Version: 6.00 Build 0)  -->
<svg version="1.1" id="Capa_1" xmlns="http://www.w3.org/2000/svg" xmlns:xlink="http://www.w3.org/1999/xlink" x="0px" y="0px"
	 viewBox="0 0 511.999 511.999" style="enable-background:new 0 0 511.999 511.999;" xml:space="preserve">
<g>
	<g>
		<path d="M508.808,112.127c-4.254-4.254-11.15-4.254-15.404,0L275.532,329.999c-4.254,4.254-4.254,11.15,0,15.404
			c2.13,2.13,4.913,3.192,7.702,3.192c2.789,0,5.572-1.062,7.702-3.192L508.808,127.53
			C513.062,123.276,513.062,116.381,508.808,112.127z"/>
	</g>
</g>
<g>
	<g>
		<path d="M263.696,357.233c-4.254-4.254-11.155-4.254-15.404,0l-19.064,19.064c-3.067,3.067-7.419,4.978-11.357,4.978H10.894
			C4.88,381.275,0,386.156,0,392.169s4.88,10.894,10.894,10.894h206.979c9.652,0,19.658-4.249,26.76-11.362l19.064-19.064
			C267.95,368.383,267.95,361.487,263.696,357.233z"/>
	</g>
</g>
<g>
	<g>
		<path d="M256,299.573H10.894C4.88,299.573,0,304.453,0,310.467c0,6.013,4.88,10.894,10.894,10.894H256
			c6.013,0,10.894-4.88,10.894-10.894C266.894,304.453,262.013,299.573,256,299.573z"/>
	</g>
</g>
<g>
	<g>
		<path d="M256,217.871H10.894C4.88,217.871,0,222.751,0,228.765c0,6.013,4.88,10.894,10.894,10.894H256
			c6.013,0,10.894-4.88,10.894-10.894C266.894,222.751,262.013,217.871,256,217.871z"/>
	</g>
</g>
<g>
</g>
<g>
</g>
<g>
</g>
<g>
</g>
<g>
</g>
<g>
</g>
<g>
</g>
<g>
</g>
<g>
</g>
<g>
</g>
<g>
</g>
<g>
</g>
<g>
</g>
<g>
</g>
<g>
</g>
</svg>
