<?xml version="1.0" encoding="iso-8859-1"?>
<!-- Generator: Adobe Illustrator 19.0.0, SVG Export Plug-In . SVG Version: 6.00 Build 0)  -->
<svg version="1.1" id="Capa_1" xmlns="http://www.w3.org/2000/svg" xmlns:xlink="http://www.w3.org/1999/xlink" x="0px" y="0px"
	 viewBox="0 0 512.001 512.001" style="enable-background:new 0 0 512.001 512.001;" xml:space="preserve">
<g>
	<g>
		<path d="M436.88,75.012c-4.258-4.204-11.114-4.182-15.35,0.049L185.756,310.835c-6.627,6.632-16.629,6.627-23.196,0.06
			l-34.849-35.393c-4.225-4.285-11.119-4.334-15.404-0.114c-4.285,4.215-4.34,11.114-0.12,15.399l34.914,35.453
			c15.154,15.154,38.905,15.154,54.059,0L429.104,98.296c39.493,42.793,61.116,98.344,61.116,157.626
			c0,63.997-25.402,123.762-71.522,168.298c-46.316,44.721-107.389,68.01-171.995,65.848
			c-121.35-4.688-220.081-103.419-224.769-224.731c-2.265-64.612,21.122-125.712,65.848-172.028
			c44.536-46.126,104.307-71.527,168.298-71.527c6.011,0,10.89-4.879,10.89-10.89S262.091,0,256.08,0
			C186.126,0,120.79,27.765,72.11,78.176C23.24,128.783-2.308,195.524,0.164,266.142c5.129,132.643,113.052,240.566,245.739,245.695
			c3.125,0.103,6.24,0.163,9.349,0.163c67.1-0.005,130.204-25.407,178.573-72.11c50.411-48.674,78.176-114.01,78.176-183.969
			C512.001,187.111,485.325,122.864,436.88,75.012z"/>
	</g>
</g>
<g>
</g>
<g>
</g>
<g>
</g>
<g>
</g>
<g>
</g>
<g>
</g>
<g>
</g>
<g>
</g>
<g>
</g>
<g>
</g>
<g>
</g>
<g>
</g>
<g>
</g>
<g>
</g>
<g>
</g>
</svg>
