<?xml version="1.0" encoding="iso-8859-1"?>
<!-- Generator: Adobe Illustrator 19.0.0, SVG Export Plug-In . SVG Version: 6.00 Build 0)  -->
<svg version="1.1" id="Capa_1" xmlns="http://www.w3.org/2000/svg" xmlns:xlink="http://www.w3.org/1999/xlink" x="0px" y="0px"
	 viewBox="0 0 512 512" style="enable-background:new 0 0 512 512;" xml:space="preserve">
<g>
	<g>
		<path d="M263.702,466.171c-4.254-4.254-11.155-4.254-15.404,0l-27.234,27.234c-4.254,4.254-4.254,11.15,0,15.404
			c2.124,2.13,4.913,3.192,7.702,3.192c2.789,0,5.578-1.062,7.702-3.192l27.234-27.234
			C267.956,477.32,267.956,470.424,263.702,466.171z"/>
	</g>
</g>
<g>
	<g>
		<path d="M508.808,221.064c-4.254-4.254-11.15-4.254-15.404,0L275.532,438.937c-4.254,4.254-4.254,11.15,0,15.404
			c2.13,2.13,4.913,3.192,7.702,3.192c2.789,0,5.572-1.062,7.702-3.192l217.872-217.872
			C513.062,232.214,513.062,225.318,508.808,221.064z"/>
	</g>
</g>
<g>
	<g>
		<path d="M392.17,0H119.83C53.755,0,0,53.755,0,119.83v272.34C0,458.245,53.755,512,119.83,512c6.013,0,10.894-4.88,10.894-10.894
			s-4.88-10.894-10.894-10.894c-54.06,0-98.043-43.983-98.043-98.043V119.83c0-54.06,43.983-98.043,98.043-98.043h272.34
			c54.06,0,98.043,43.983,98.043,98.043c0,6.013,4.88,10.894,10.894,10.894S512,125.843,512,119.83C512,53.755,458.245,0,392.17,0z"
			/>
	</g>
</g>
<g>
</g>
<g>
</g>
<g>
</g>
<g>
</g>
<g>
</g>
<g>
</g>
<g>
</g>
<g>
</g>
<g>
</g>
<g>
</g>
<g>
</g>
<g>
</g>
<g>
</g>
<g>
</g>
<g>
</g>
</svg>
