<?xml version="1.0" encoding="iso-8859-1"?>
<!-- Generator: Adobe Illustrator 19.0.0, SVG Export Plug-In . SVG Version: 6.00 Build 0)  -->
<svg version="1.1" id="Capa_1" xmlns="http://www.w3.org/2000/svg" xmlns:xlink="http://www.w3.org/1999/xlink" x="0px" y="0px"
	 viewBox="0 0 512.001 512.001" style="enable-background:new 0 0 512.001 512.001;" xml:space="preserve">
<g>
	<g>
		<path d="M439.89,78.181C391.216,27.77,325.88,0,255.921,0c-6.011,0-10.89,4.879-10.89,10.89s4.879,10.89,10.89,10.89
			c63.997,0,123.762,25.402,168.298,71.538c44.721,46.316,68.108,107.411,65.848,171.99
			c-4.688,121.35-103.419,220.081-224.731,224.764c-64.617,2.238-125.712-21.122-172.028-65.843
			c-46.126-44.541-71.527-104.312-71.527-168.309c0-66.883,26.316-115.339,48.462-144.296c2.75-3.665,6.883-5.87,11.647-6.207
			c4.797-0.359,9.48,1.35,12.78,4.65l235.23,235.23c4.253,4.253,11.146,4.253,15.399,0c4.253-4.253,4.253-11.146,0-15.399
			l-235.23-235.23c-7.765-7.77-18.557-11.729-29.725-10.977c-10.994,0.784-21.024,6.197-27.465,14.784
			C28.756,130.019,0,182.946,0,255.921c0,69.959,27.765,135.295,78.181,183.975c48.369,46.703,111.456,72.11,178.6,72.104
			c3.109,0,6.235-0.054,9.36-0.163c132.643-5.124,240.566-113.046,245.695-245.728C514.309,195.529,488.76,128.789,439.89,78.181z"
			/>
	</g>
</g>
<g>
</g>
<g>
</g>
<g>
</g>
<g>
</g>
<g>
</g>
<g>
</g>
<g>
</g>
<g>
</g>
<g>
</g>
<g>
</g>
<g>
</g>
<g>
</g>
<g>
</g>
<g>
</g>
<g>
</g>
</svg>
