<?xml version="1.0" encoding="iso-8859-1"?>
<!-- Generator: Adobe Illustrator 19.0.0, SVG Export Plug-In . SVG Version: 6.00 Build 0)  -->
<svg version="1.1" id="Capa_1" xmlns="http://www.w3.org/2000/svg" xmlns:xlink="http://www.w3.org/1999/xlink" x="0px" y="0px"
	 viewBox="0 0 512 512" style="enable-background:new 0 0 512 512;" xml:space="preserve">
<g>
	<g>
		<path d="M501.106,163.404c-6.013,0-10.894,4.88-10.894,10.894V392.17c0,54.06-43.983,98.043-98.043,98.043H119.83
			c-54.06,0-98.043-43.983-98.043-98.043V174.298c0-54.06,43.983-98.043,98.043-98.043h272.34c6.013,0,10.894-4.88,10.894-10.894
			c0-6.013-4.88-10.894-10.894-10.894H119.83C53.755,54.468,0,108.223,0,174.298V392.17C0,458.245,53.755,512,119.83,512h272.34
			C458.245,512,512,458.245,512,392.17V174.298C512,168.285,507.12,163.404,501.106,163.404z"/>
	</g>
</g>
<g>
	<g>
		<path d="M399.872,57.66l-46.113-46.118C347.027,4.2,337.223,0,326.809,0H185.736c-10.583,0-19.772,3.824-27.31,11.362
			L112.128,57.66c-4.254,4.254-4.254,11.15,0,15.404c4.249,4.254,11.155,4.254,15.404,0l46.298-46.298
			c3.399-3.393,7.179-4.978,11.907-4.978h141.072c4.357,0,8.355,1.667,10.97,4.564c0.125,0.142,0.261,0.283,0.392,0.414
			l46.298,46.298c2.13,2.13,4.913,3.192,7.702,3.192s5.572-1.062,7.702-3.192C404.126,68.81,404.126,61.914,399.872,57.66z"/>
	</g>
</g>
<g>
	<g>
		<path d="M256,136.17c-81.092,0-147.064,65.972-147.064,147.064S174.908,430.298,256,430.298s147.064-65.972,147.064-147.064
			S337.092,136.17,256,136.17z M256,408.511c-69.076,0-125.277-56.195-125.277-125.277c0-69.076,56.2-125.277,125.277-125.277
			c69.082,0,125.277,56.2,125.277,125.277C381.277,352.316,325.082,408.511,256,408.511z"/>
	</g>
</g>
<g>
</g>
<g>
</g>
<g>
</g>
<g>
</g>
<g>
</g>
<g>
</g>
<g>
</g>
<g>
</g>
<g>
</g>
<g>
</g>
<g>
</g>
<g>
</g>
<g>
</g>
<g>
</g>
<g>
</g>
</svg>
