<?xml version="1.0" encoding="iso-8859-1"?>
<!-- Generator: Adobe Illustrator 19.0.0, SVG Export Plug-In . SVG Version: 6.00 Build 0)  -->
<svg version="1.1" id="Capa_1" xmlns="http://www.w3.org/2000/svg" xmlns:xlink="http://www.w3.org/1999/xlink" x="0px" y="0px"
	 viewBox="0 0 512 512" style="enable-background:new 0 0 512 512;" xml:space="preserve">
<g>
	<g>
		<path d="M419.404,403.064c6.013,0,10.894-4.88,10.894-10.894V119.83C430.298,53.755,376.543,0,310.468,0H201.532
			c-66.075,0-119.83,53.755-119.83,119.83V435.2c0,15.905,9.091,29.478,23.732,35.399c14.516,5.888,30.35,2.527,41.145-8.611
			l109.405-108.898l155.719,155.719c2.13,2.13,4.913,3.192,7.702,3.192c2.789,0,5.572-1.062,7.696-3.197
			c4.254-4.254,4.254-11.15,0-15.404L263.696,329.995c-4.254-4.249-11.128-4.249-15.387-0.022L131.067,446.682
			c-4.706,4.859-11.231,6.237-17.457,3.726c-6.335-2.571-10.12-8.257-10.12-15.207V119.83c0-54.06,43.983-98.043,98.043-98.043
			h108.936c54.06,0,98.043,43.983,98.043,98.043v272.34C408.511,398.183,413.391,403.064,419.404,403.064z"/>
	</g>
</g>
<g>
</g>
<g>
</g>
<g>
</g>
<g>
</g>
<g>
</g>
<g>
</g>
<g>
</g>
<g>
</g>
<g>
</g>
<g>
</g>
<g>
</g>
<g>
</g>
<g>
</g>
<g>
</g>
<g>
</g>
</svg>
